<svg xmlns="http://www.w3.org/2000/svg" viewBox="0 0 48 48" fill="none">
  <rect width="48" height="48" rx="4" fill="#006C35"/>
  <path fill="#fff" d="M24 8c-2 0-3.5 1.2-4 3-.3 1.2-.2 2.5.5 3.5.8 1.2 2 2 3.5 2.2v1.8c-2.5.3-4.5 1.5-5.8 3.5-1 1.5-1.5 3.2-1.5 5h2c0-1.2.3-2.3 1-3.2.9-1.2 2.3-1.8 4-1.8s3.1.6 4 1.8c.7.9 1 2 1 3.2h2c0-1.8-.5-3.5-1.5-5-1.3-2-3.3-3.2-5.8-3.5v-1.8c1.5-.2 2.7-1 3.5-2.2.7-1 .8-2.3.5-3.5-.5-1.8-2-3-4-3zm0 4c.8 0 1.2.5 1.2 1.2s-.4 1.2-1.2 1.2-1.2-.5-1.2-1.2.4-1.2 1.2-1.2z"/>
  <path fill="#fff" opacity=".9" d="M14 34l4-6h2l-3 6h-3zm20 0l-4-6h-2l3 6h3zm-10 0l-2-6h2l2 6h-2z"/>
</svg>
